<?xml version="1.0" encoding="UTF-8" standalone="no"?>
<svg width="43px" height="38px" viewBox="0 0 43 38" version="1.1" xmlns="http://www.w3.org/2000/svg" xmlns:xlink="http://www.w3.org/1999/xlink">
    <!-- Generator: Sketch 44.1 (41455) - http://www.bohemiancoding.com/sketch -->
    <title>Cow</title>
    <desc>Created with Sketch.</desc>
    <defs></defs>
    <g id="Page-1" stroke="none" stroke-width="1" fill="none" fill-rule="evenodd">
        <g id="Start" transform="translate(-36.000000, -105.000000)" fill="#303030">
            <g id="Cow-info" transform="translate(36.000000, 105.000000)">
                <g id="Cow" transform="translate(21.500000, 19.000000) scale(-1, 1) translate(-21.500000, -19.000000) ">
                    <path d="M40.3125,37.0890411 C40.2229167,37.0890411 40.1333333,37.0703014 40.0463095,37.0302192 C39.726369,36.8810822 39.5830357,36.4950959 39.7314881,36.1681918 C40.2126786,35.0909178 39.9541667,30.6227945 39.6777381,28.0593562 C39.6649405,27.9601918 39.6777381,27.8599863 39.7110119,27.7662877 C39.7596429,27.6293836 44.5254762,14.0154932 38.6539286,10.300863 C38.6027381,10.2691096 38.5566667,10.230589 38.5182738,10.1863425 C36.0764881,7.45867123 32.8130952,8.10675342 28.6845833,8.92687671 C26.4296429,9.37480822 23.870119,9.8810411 21.2056548,9.82013699 C19.3320833,9.77641096 14.8657143,9.51769863 13.8316667,8.06615068 C13.6243452,7.77516438 13.6883333,7.36835616 13.9724405,7.15753425 C14.2591071,6.94619178 14.6583929,7.01126027 14.8682738,7.30224658 C15.3008333,7.91128767 18.0983929,8.44589041 21.2338095,8.5190274 C23.762619,8.58019178 26.1404167,8.10623288 28.438869,7.64971233 C32.5750595,6.82828767 36.4834524,6.05189041 39.403869,9.24441096 C45.7642857,13.389274 41.5180357,26.4539863 40.9651786,28.065863 C41.0880357,29.2558356 41.6434524,35.0425068 40.8935119,36.7085205 C40.7860119,36.9479726 40.5556548,37.0890411 40.3125,37.0890411" id="Fill-235"></path>
                    <path d="M38.4670833,37.7738219 C37.619881,37.7738219 36.8110714,37.6272877 36.49625,37.3526986 C36.2019048,37.0960685 36.1404762,36.6926438 36.335,36.3699041 C36.7035714,35.6229178 36.7905952,32.9319452 36.759881,31.4275616 C36.7522024,31.0681233 37.03375,30.7123288 37.3869643,30.7123288 C37.3920833,30.7123288 37.3946429,30.7123288 37.3997619,30.7123288 C37.7478571,30.7123288 38.0319643,31.0454795 38.0396429,31.4002329 C38.0524405,32.0215068 38.0857143,34.8764521 37.6685119,36.4021781 C38.3621429,36.5003014 39.61375,36.4677671 39.9029762,36.2514795 C40.1538095,35.9971918 40.5530952,36.0094247 40.801369,36.2631918 C41.0522024,36.5174795 41.0470833,36.9380822 40.79625,37.1921096 C40.4072024,37.5866849 39.4141071,37.7738219 38.4670833,37.7738219" id="Fill-236"></path>
                    <path d="M32.8258929,29.8916849 C32.8028571,29.8916849 32.7772619,29.8916849 32.7542262,29.8911644 C30.7142857,29.8646164 29.1120238,28.8105068 28.3646429,26.9995205 C28.2264286,26.6681918 28.38,26.2866301 28.7050595,26.1473836 C29.030119,26.008137 29.406369,26.1637808 29.5445833,26.4948493 C30.0001786,27.5994521 30.8166667,28.2766849 31.9735714,28.5078082 C33.319881,28.7774521 34.512619,28.3329041 34.7378571,28.1421233 C34.8991071,27.8586849 35.2523214,27.7407808 35.5517857,27.8784658 C35.8742857,28.0260411 36.017619,28.4115068 35.8717262,28.7389315 C35.5492262,29.4674384 34.0851786,29.8916849 32.8258929,29.8916849" id="Fill-237"></path>
                    <path d="M35.5364286,37.4849178 C33.0639286,37.4849178 32.9333929,37.1382329 32.8054167,36.8027397 C32.6595238,36.4188356 32.7311905,36.015411 32.8207738,35.5044932 C32.9410714,34.8259589 33.1023214,33.9110959 32.8335714,32.6341918 C32.4982738,32.3739178 32.2167262,32.055863 31.9991667,31.6860137 C31.8174405,31.377589 31.9172619,30.9780685 32.2192857,30.7935342 C32.523869,30.6087397 32.9154762,30.7089452 33.0972024,31.0171096 C33.2610119,31.2927397 33.4785714,31.5220411 33.7473214,31.6985068 C33.8855357,31.7883014 33.9827976,31.9280685 34.02375,32.0894384 C34.4281548,33.7577945 34.2182738,34.9472466 34.0800595,35.7340548 C34.0595833,35.8543014 34.0365476,35.9896438 34.018631,36.1049452 C34.4767857,36.1648082 35.3495833,36.1910959 36.0790476,36.1780822 C36.4245833,36.1736575 36.7240476,36.4578767 36.7291667,36.8170548 C36.7342857,37.1764932 36.4552976,37.4729452 36.1020833,37.4794521 C35.899881,37.4830959 35.7104762,37.4849178 35.5364286,37.4849178" id="Fill-238"></path>
                    <path d="M2.4622619,18.1741507 C2.39059524,18.1741507 2.31636905,18.1613973 2.24470238,18.1348493 C0.645,17.5442877 0.230357143,15.5211781 0.215,15.4352877 C0.174047619,15.2333151 0.230357143,15.0243151 0.366011905,14.8715342 C0.383928571,14.8509726 2.33428571,12.5834658 2.42130952,8.45109589 C2.45714286,6.74473973 3.6114881,5.06024658 5.4389881,4.05532877 C7.55571429,2.88930137 9.99238095,2.93406849 11.9529762,4.17609589 C12.2524405,4.36609589 12.3445833,4.76743836 12.1577381,5.07247945 C11.9708929,5.37778082 11.5741667,5.47043836 11.2747024,5.28069863 C9.71083333,4.28931507 7.75535714,4.25886301 6.04815476,5.19975342 C4.64809524,5.97068493 3.72666667,7.25773973 3.6985119,8.47894521 C3.61916667,12.2893562 2.12952381,14.6672192 1.54595238,15.4563699 C1.68160714,15.8795753 2.01690476,16.6666438 2.67982143,16.9115616 C3.01255952,17.0341507 3.18404762,17.4073836 3.06375,17.7452192 C2.96904762,18.0096575 2.72333333,18.1741507 2.4622619,18.1741507" id="Fill-239"></path>
                    <path d="M14.3486905,8.62573973 C14.1132143,8.62573973 13.8879762,8.49352055 13.7753571,8.265 C13.6627381,8.03205479 13.5424405,7.80743836 13.4170238,7.59687671 C13.2352976,7.28845205 13.335119,6.88893151 13.6397024,6.70465753 C13.9417262,6.52038356 14.3358929,6.62058904 14.5150595,6.9290137 C14.6558333,7.16794521 14.7940476,7.42223288 14.9220238,7.68484932 C15.0781548,8.00654795 14.9501786,8.39721918 14.6353571,8.55728767 C14.5432143,8.60387671 14.4459524,8.62573973 14.3486905,8.62573973" id="Fill-240"></path>
                    <path d="M19.5522024,37.4627945 C18.861131,37.4627945 18.1291071,37.3469726 17.6223214,36.9557808 C17.4431548,36.8147123 17.3484524,36.5859315 17.3766071,36.355589 C17.8245238,32.818726 16.6445833,30.7797397 16.6317857,30.7596986 C16.5575595,30.6324247 16.5268452,30.4830274 16.5447619,30.3359726 C16.5473214,30.315411 16.7930357,28.3266575 15.968869,26.752 C14.9092262,27.1668767 12.5007143,27.8589452 10.540119,26.5755342 C8.63071429,25.327 7.74255952,22.6066164 7.90125,18.4903836 C7.91660714,18.1314658 8.21095238,17.8503699 8.56672619,17.8659863 C8.91994048,17.8800411 9.19380952,18.1824795 9.1810119,18.5416575 C9.0402381,22.1646712 9.73130952,24.4993288 11.2311905,25.4810822 C13.163631,26.7454932 15.904881,25.3668219 15.9330357,25.3527671 C16.2120238,25.2088356 16.555,25.2939452 16.7392857,25.5539589 C17.9678571,27.2918082 17.8961905,29.5775342 17.8373214,30.2919863 C18.1470238,30.9205479 18.9891071,32.9543288 18.6973214,36.0630411 C19.1861905,36.2093151 19.9745238,36.170274 20.6323214,36.0640822 L21.0827976,25.5151781 C21.0930357,25.2850959 21.2235714,25.0773973 21.4232143,24.9691233 C21.6228571,24.8611096 21.8634524,24.868137 22.0554167,24.9881233 C26.1199405,27.5101781 30.8064286,24.1302603 32.8054167,22.6870411 C33.0460119,22.5136986 33.2482143,22.368726 33.4043452,22.2653973 C33.6372619,22.1113151 33.9418452,22.1271918 34.1568452,22.3062603 C34.5433333,22.6271781 34.5330952,23.1310685 34.5177381,23.7146027 C34.4870238,24.9868219 34.4307143,27.3550548 37.7964881,30.0421233 C38.0729167,30.264137 38.1215476,30.6730274 37.9039881,30.9556849 C37.683869,31.2383425 37.2820238,31.2875342 37.0055952,31.0652603 C33.3889881,28.1764795 33.2149405,25.454274 33.2328571,23.9735753 C31.1673214,25.4516712 26.6139286,28.478137 22.3190476,26.5893288 L21.8890476,36.6327808 C21.87625,36.9237671 21.6740476,37.1707671 21.3950595,37.2376575 C21.1570238,37.2946575 20.3866071,37.4627945 19.5522024,37.4627945" id="Fill-241"></path>
                    <path d="M4.46892857,18.7628904 C3.55517857,18.7628904 2.62607143,18.4313014 1.74559524,17.7858219 C1.45892857,17.5755205 1.39494048,17.1687123 1.6022619,16.8774658 C1.80958333,16.5859589 2.20886905,16.5203699 2.49553571,16.730411 C3.30434524,17.3240959 4.14130952,17.5627671 4.91428571,17.4214384 C5.66422619,17.284274 6.3425,16.7832466 6.87744048,15.9724932 C7.05404762,15.7018082 7.40214286,15.6065479 7.68880952,15.7499589 C8.7075,16.2564521 9.62892857,16.0828493 10.2252976,15.8486027 C11.1134524,15.4977534 11.7200595,14.8384795 11.8505952,14.5035068 C11.9785714,14.1690548 12.3497024,14.0045616 12.679881,14.1367808 C13.0075,14.2684795 13.16875,14.6463973 13.0407738,14.9808493 C12.7285119,15.7819726 11.7610119,16.6374932 10.6885714,17.0617397 C9.9539881,17.3516849 8.8585119,17.5744795 7.62482143,17.1314932 C6.93886905,17.9893562 6.08910714,18.5289041 5.13952381,18.7022466 C4.91684524,18.7428493 4.69416667,18.7628904 4.46892857,18.7628904" id="Fill-242"></path>
                    <path d="M16.3220833,36.9784247 C15.4160119,36.9784247 14.4894643,36.8292877 14.13625,36.6934247 C13.7216071,36.534137 13.6013095,36.2644932 13.5731548,36.0661644 C13.5424405,35.8600274 13.6064286,35.6575342 13.7395238,35.5021507 C14.3282143,34.5896301 14.1464881,32.9259589 14.0031548,32.2341507 C13.7625595,31.8119863 13.6550595,31.3122603 13.5296429,30.7409589 C13.3120833,29.732137 13.0638095,28.5887534 11.991369,27.5000274 C11.7430952,27.246 11.7430952,26.8339863 11.991369,26.5799589 C12.2422024,26.3256712 12.6466071,26.3256712 12.8974405,26.5799589 C14.2309524,27.9372877 14.5483333,29.395863 14.7786905,30.4606438 C14.8861905,30.9556849 14.9783333,31.3830548 15.1370238,31.6251096 C15.1805357,31.689137 15.21125,31.7601918 15.2266071,31.8351507 C15.2496429,31.9350959 15.7180357,33.9962055 15.1191071,35.595589 C15.8792857,35.7028219 17.1155357,35.7319726 17.420119,35.5430137 C17.688869,35.3108493 18.0855952,35.3498904 18.3159524,35.6242192 C18.54375,35.8982877 18.5027976,36.3144658 18.2340476,36.5468904 C17.8603571,36.868589 17.097619,36.9784247 16.3220833,36.9784247" id="Fill-243"></path>
                    <path d="M27.9679167,29.1923288 C27.8066667,29.1923288 27.6454167,29.1306438 27.52,29.0064932 C27.2666071,28.7550685 27.2640476,28.3433151 27.5097619,28.0864247 L28.7152976,26.8360685 C28.9610119,26.5796986 29.3679762,26.5750137 29.6188095,26.8264384 C29.8722024,27.077863 29.8773214,27.4898767 29.6290476,27.7465068 L28.4260714,28.996863 C28.3006548,29.127 28.1342857,29.1923288 27.9679167,29.1923288" id="Fill-244"></path>
                    <path d="M30.9420833,31.4007534 C30.8320238,31.4007534 30.7194048,31.3708219 30.6144643,31.3083562 C30.3124405,31.1240822 30.212619,30.7243014 30.3943452,30.4158767 L31.277381,28.9138356 C31.4591071,28.6056712 31.8507143,28.5054658 32.1552976,28.6894795 C32.4573214,28.8737534 32.5571429,29.273274 32.3754167,29.5816986 L31.492381,31.084 C31.3720833,31.2875342 31.1596429,31.4007534 30.9420833,31.4007534" id="Fill-245"></path>
                    <path d="M11.9120238,8.67779452 C11.6535119,8.67779452 11.4103571,8.51772603 11.3130952,8.25719178 C11.1876786,7.92117808 11.3540476,7.54560274 11.6867857,7.41832877 C11.7021429,7.41234247 13.4221429,6.72053425 14.0517857,5.05790411 C14.2591071,4.51263014 14.3307738,3.91634247 14.2642262,3.27320548 C13.9417262,3.73180822 13.4733333,4.20394521 12.8104167,4.67556164 C11.6023214,5.53472603 10.2867262,6.00139726 10.2304167,6.02091781 C9.89767857,6.1380411 9.53422619,5.95793151 9.41904762,5.6180137 C9.30386905,5.27835616 9.48047619,4.90824658 9.81321429,4.79086301 C9.85928571,4.7749863 14.2795833,3.14489041 13.5066071,0.871136986 C13.3991071,0.547356164 13.5526786,0.192342466 13.8649405,0.0593424658 C14.1746429,-0.0739178082 14.5329762,0.0606438356 14.6839881,0.366465753 C15.6335714,2.28624658 15.8204167,4.02747945 15.2394048,5.54175342 C14.3947619,7.74627397 12.2294048,8.60023288 12.1372619,8.63563014 C12.0630357,8.66426027 11.98625,8.67779452 11.9120238,8.67779452" id="Fill-246"></path>
                    <path d="M2.99208333,8.52761644 C2.87434524,8.52761644 2.75916667,8.49560274 2.65166667,8.42845205 C1.34886905,7.59973973 -0.104940476,5.86891781 0.378809524,2.3299726 C0.424880952,1.99057534 0.724345238,1.74565753 1.05708333,1.77012329 C1.39238095,1.79458904 1.65345238,2.07932877 1.65345238,2.42184932 C1.64833333,3.50823288 2.56464286,4.26641096 4.37678571,4.67478082 C4.72232143,4.75286301 4.93988095,5.10032877 4.86309524,5.45117808 C4.78630952,5.80176712 4.44333333,6.02221918 4.10035714,5.94543836 C3.1072619,5.72160274 2.29845238,5.37778082 1.69184524,4.92984932 C1.9247619,5.9779726 2.4725,6.77961644 3.32994048,7.32515068 C3.63196429,7.51567123 3.72154762,7.9170137 3.53470238,8.22179452 C3.41184524,8.41934247 3.20452381,8.52761644 2.99208333,8.52761644" id="Fill-247"></path>
                </g>
            </g>
        </g>
    </g>
</svg>