<?xml version="1.0" encoding="UTF-8" standalone="no"?>
<svg width="43px" height="37px" viewBox="0 0 43 37" version="1.1" xmlns="http://www.w3.org/2000/svg" xmlns:xlink="http://www.w3.org/1999/xlink">
    <!-- Generator: Sketch 44.1 (41455) - http://www.bohemiancoding.com/sketch -->
    <title>tractor</title>
    <desc>Created with Sketch.</desc>
    <defs></defs>
    <g id="Page-1" stroke="none" stroke-width="1" fill="none" fill-rule="evenodd">
        <g id="Start" transform="translate(-36.000000, -437.000000)" fill="#303030">
            <g id="Farmer-info" transform="translate(36.000000, 432.000000)">
                <g id="tractor" transform="translate(0.000000, 5.000000)">
                    <path d="M25.6592192,13.4274194 C25.327,13.4274194 25.0348356,13.2227258 24.9482466,12.8965887 L22.4168425,3.39803226 C22.3558767,3.16916935 22.4059452,2.92956452 22.5517329,2.74426613 C22.6975205,2.55896774 22.9201781,2.45572581 23.1557945,2.46616935 L23.9271438,2.49720161 C23.7898973,1.97860484 23.5554589,1.49193548 23.2294247,1.49193548 L8.01331507,1.49193548 C7.91730137,1.53848387 7.78211644,1.63456452 7.64369178,1.86253226 L7.98680822,1.79032258 C7.98710274,1.79032258 7.98769178,1.79032258 7.9879863,1.79032258 C8.39413014,1.79032258 8.72369863,2.19523387 8.72428767,2.60700806 C8.72487671,3.01908065 8.39560274,3.31657258 7.98886986,3.31716935 L6.49182192,3.28225806 C6.4915274,3.28225806 6.49093836,3.28225806 6.49093836,3.28225806 C6.25414384,3.28225806 6.03178082,3.2398871 5.89335616,3.04533871 C5.75493151,2.85079032 5.71723288,2.63684677 5.79233562,2.40887903 C5.98141781,1.83537903 6.69886986,0 7.9879863,0 L23.2294247,0 C24.9008288,0 25.4651301,2.03320968 25.535226,3.23451613 C25.5473014,3.44458065 25.4713151,3.65016935 25.3261164,3.80025806 C25.1809178,3.95064516 24.9779932,4.03419355 24.7721233,4.02375 L24.0991438,3.99808871 L26.236774,12.028879 C26.4988973,12.1395806 26.6850342,12.3991774 26.6906301,12.7050242 C26.6974041,13.1167984 26.3734315,13.4357742 25.9669932,13.4429355 L25.6730616,13.4274194 C25.6686438,13.4274194 25.663637,13.4274194 25.6592192,13.4274194" id="Fill-41"></path>
                    <path d="M39.8330205,21.7822581 L23.3030548,21.7822581 C23.0388699,21.7822581 22.7947123,21.6390323 22.6636507,21.4065887 C19.9160685,16.5366129 16.3046575,13.8072661 11.9298493,13.2943387 C8.68099315,12.9138952 6.22940411,13.9463145 6.2049589,13.9567581 C5.95314384,14.0647742 5.6630411,14.023 5.4509863,13.84725 C5.23922603,13.6717984 5.14115068,13.3916129 5.19593151,13.1200806 L7.31559589,2.65206452 C7.39717808,2.24864516 7.78682877,1.98904839 8.18502055,2.07110484 C8.58321233,2.15405645 8.84003425,2.54852419 8.75815753,2.95194355 L6.88824658,12.1873226 C9.96039041,11.4100242 18.0066918,10.5312742 23.7259863,20.2903226 L39.1335342,20.2903226 C39.2118767,18.0312339 38.9818562,15.0700403 38.1678014,14.4326855 C37.4294384,13.8547097 36.8138904,13.4987339 33.5962534,13.4450242 C32.3831233,13.4250323 30.9750205,13.4274194 29.4155342,13.4274194 C29.4143562,13.4274194 29.4131781,13.4274194 29.412,13.4274194 C29.0070342,13.4274194 28.6777603,13.0950161 28.6756986,12.6841371 C28.673637,12.2723629 29.0014384,11.9360806 29.4081712,11.9342903 C30.9794384,11.9262339 32.3972603,11.9322016 33.6204041,11.9527903 C36.9526096,12.0079919 37.9554521,12.3812742 39.0681507,13.2522661 C40.9065479,14.6913871 40.6397123,20.0319194 40.5675548,21.0879113 C40.5407534,21.4787984 40.219726,21.7822581 39.8330205,21.7822581" id="Fill-42"></path>
                    <path d="M10.0696575,24.2114274 C8.34847945,24.2114274 6.94803425,25.6299597 6.94803425,27.3737339 C6.94803425,29.1175081 8.34847945,30.5360403 10.0696575,30.5360403 C11.7908356,30.5360403 13.1909863,29.1175081 13.1909863,27.3737339 C13.1909863,25.6299597 11.7908356,24.2114274 10.0696575,24.2114274 Z M10.0696575,32.0279758 C7.5364863,32.0279758 5.47543151,29.9401613 5.47543151,27.3737339 C5.47543151,24.8073065 7.5364863,22.7194919 10.0696575,22.7194919 C12.6028288,22.7194919 14.663589,24.8073065 14.663589,27.3737339 C14.663589,29.9401613 12.6028288,32.0279758 10.0696575,32.0279758 L10.0696575,32.0279758 Z" id="Fill-43"></path>
                    <path d="M10.0281301,19.6359597 C5.83975342,19.6359597 2.43215068,23.0882984 2.43215068,27.3319597 C2.43215068,31.5753226 5.83975342,35.0273629 10.0281301,35.0273629 C14.2168014,35.0273629 17.6241096,31.5753226 17.6241096,27.3319597 C17.6241096,23.0882984 14.2168014,19.6359597 10.0281301,19.6359597 Z M10.0281301,36.5192984 C5.02776027,36.5192984 0.959547945,32.3979758 0.959547945,27.3319597 C0.959547945,22.2656452 5.02776027,18.1440242 10.0281301,18.1440242 C15.0285,18.1440242 19.0967123,22.2656452 19.0967123,27.3319597 C19.0967123,32.3979758 15.0285,36.5192984 10.0281301,36.5192984 L10.0281301,36.5192984 Z" id="Fill-44"></path>
                    <path d="M35.5453904,26.9965726 C34.2845479,26.9965726 33.2584384,28.0358548 33.2584384,29.3135484 C33.2584384,30.5909435 34.2845479,31.6302258 35.5453904,31.6302258 C36.8062329,31.6302258 37.8323425,30.5909435 37.8323425,29.3135484 C37.8323425,28.0358548 36.8062329,26.9965726 35.5453904,26.9965726 Z M35.5453904,33.1221613 C33.4725548,33.1221613 31.7858356,31.4135968 31.7858356,29.3135484 C31.7858356,27.2132016 33.4725548,25.5046371 35.5453904,25.5046371 C37.618226,25.5046371 39.3049452,27.2132016 39.3049452,29.3135484 C39.3049452,31.4135968 37.618226,33.1221613 35.5453904,33.1221613 L35.5453904,33.1221613 Z" id="Fill-45"></path>
                    <path d="M35.4962055,23.7143145 C32.3133219,23.7143145 29.7241918,26.3377339 29.7241918,29.5624032 C29.7241918,32.7867742 32.3133219,35.4098952 35.4962055,35.4098952 C38.679089,35.4098952 41.2682192,32.7867742 41.2682192,29.5624032 C41.2682192,26.3377339 38.679089,23.7143145 35.4962055,23.7143145 Z M35.4962055,36.9018306 C31.5013288,36.9018306 28.251589,33.6094274 28.251589,29.5624032 C28.251589,25.5150806 31.5013288,22.222379 35.4962055,22.222379 C39.4907877,22.222379 42.7408219,25.5150806 42.7408219,29.5624032 C42.7408219,33.6094274 39.4907877,36.9018306 35.4962055,36.9018306 L35.4962055,36.9018306 Z" id="Fill-46"></path>
                    <path d="M19.3629589,11.9662177 C19.5320137,12.0020242 20.0868904,12.1088468 20.6441233,12.1088468 C21.0755959,12.1088468 21.3156301,12.0458871 21.4410959,11.9927742 C22.0775548,11.7242258 22.1935959,11.5786129 22.2133288,11.5445968 C22.2112671,11.5431048 22.2095,11.5174435 22.194774,11.4697016 L22.1544247,11.3381129 C20.7433767,6.72982258 19.9290274,4.477 19.6062329,3.82054839 C19.450726,3.81159677 19.184774,3.80443548 18.7309178,3.80443548 C18.4266781,3.80443548 18.0835616,3.80712097 17.7162945,3.81040323 C17.2898288,3.81398387 16.8312603,3.81756452 16.3641507,3.81756452 L16.010137,3.81696774 C15.5218219,3.81458065 15.0287945,3.80533065 14.5663973,3.79667742 C13.8191986,3.78235484 13.1182397,3.77608871 12.8054589,3.78891935 C12.7197534,4.69691129 12.7907329,7.11295161 12.9270959,9.30012903 L19.3629589,11.9662177 Z M20.6441233,13.6007823 C19.8047397,13.6007823 19.0104178,13.4157823 18.977137,13.4080242 C18.9388493,13.3990726 18.9014452,13.3868387 18.8652192,13.3719194 L11.9439863,10.5047177 C11.6839247,10.397 11.5072123,10.1490403 11.4880685,9.86527419 C11.0333288,3.15604032 11.4509589,2.80931452 11.7557877,2.55598387 C12.0123151,2.34323387 12.3365822,2.28803226 13.3332397,2.28803226 C13.6996233,2.28803226 14.1316849,2.29608871 14.5940822,2.30504032 C15.0497055,2.31369355 15.5356644,2.32294355 16.016911,2.32503226 L16.3641507,2.32562903 C16.827137,2.32562903 17.2815822,2.32204839 17.7042192,2.31846774 C18.0759041,2.31518548 18.4231438,2.3125 18.7309178,2.3125 C19.8527466,2.3125 20.1316575,2.35248387 20.3554932,2.46527419 C20.7183425,2.64818548 21.0935616,2.8373629 23.5610548,10.8962016 L23.6005205,11.026 C24.0558493,12.506 22.6203562,13.1114274 22.0071644,13.370129 C21.6443151,13.5232016 21.1857466,13.6007823 20.6441233,13.6007823 L20.6441233,13.6007823 Z" id="Fill-47"></path>
                    <path d="M21.0859041,25.8328629 C20.6791712,25.8328629 20.3496027,25.4989677 20.3496027,25.0868952 C20.3496027,21.4677581 17.5531301,17.9270968 13.5488288,16.4757419 C9.14368493,14.8799677 4.6354589,16.2471774 1.48880137,20.1339677 C1.23050685,20.4526452 0.766636986,20.4985968 0.452383562,20.2378065 C0.138130137,19.9764194 0.0921849315,19.5064597 0.349890411,19.1877823 C3.90887671,14.7919435 9.02823288,13.2537581 14.0448014,15.0709355 C18.6240068,16.7305645 21.8222055,20.8492016 21.8222055,25.0868952 C21.8222055,25.4989677 21.492637,25.8328629 21.0859041,25.8328629" id="Fill-48"></path>
                    <path d="M28.6044247,24.1693548 C28.602363,24.1693548 28.6003014,24.1693548 28.5982397,24.1693548 L23.5557534,24.1484677 C23.1490205,24.1448871 22.8221027,23.81875 22.8253425,23.4066774 C22.8288767,22.9969919 23.1578562,22.6774194 23.5616438,22.6774194 C23.5637055,22.6774194 23.5657671,22.6774194 23.5678288,22.6774194 L28.6103151,22.7194919 C29.0170479,22.7227742 29.3439658,23.0384677 29.340726,23.4505403 C29.3371918,23.8602258 29.0082123,24.1693548 28.6044247,24.1693548" id="Fill-49"></path>
                    <path d="M26.2123288,31.0322581 L20.3219178,31.0322581 C19.9151849,31.0322581 19.5856164,30.6983629 19.5856164,30.2862903 C19.5856164,29.8742177 19.9151849,29.5403226 20.3219178,29.5403226 L26.2123288,29.5403226 C26.6190616,29.5403226 26.9486301,29.8742177 26.9486301,30.2862903 C26.9486301,30.6983629 26.6190616,31.0322581 26.2123288,31.0322581" id="Fill-50"></path>
                    <path d="M26.3077534,30.7887742 C25.9873151,30.7887742 25.6883767,30.5700565 25.5920685,30.2442177 C25.3605753,29.4621452 25.5520137,24.6852661 28.1873836,22.8507823 C28.5216644,22.6174435 28.9802329,22.7030806 29.211137,23.0429435 C29.4414521,23.3822097 29.3563356,23.8467984 29.0214658,24.0801371 C27.1094384,25.4115403 26.910637,29.3144435 27.0098904,29.8431855 C27.1265205,30.2376532 26.9018014,30.639879 26.5124452,30.7583387 C26.444411,30.7789274 26.3754932,30.7887742 26.3077534,30.7887742" id="Fill-51"></path>
                    <path d="M21.0744178,28.9372823 C20.8935822,28.9372823 20.7036164,28.9277339 20.5039315,28.9071452 C20.0992603,28.8650726 19.8047397,28.4989516 19.8459726,28.0892661 C19.8875,27.6792823 20.2471096,27.3814919 20.6532534,27.4226694 C21.6030822,27.5214355 22.2999178,27.3003306 22.7269726,26.7668145 C23.2535753,26.1085726 23.3469384,24.9591855 22.9699521,23.7674274 C22.8456644,23.3753468 23.0591918,22.9552177 23.4464863,22.8295968 C23.8326027,22.7039758 24.2484658,22.9200081 24.3721644,23.3123871 C24.9070137,25.00275 24.7194041,26.6456694 23.8705959,27.7064355 C23.4052534,28.2879919 22.554089,28.9372823 21.0744178,28.9372823" id="Fill-52"></path>
                    <path d="M1.65491096,21.8243306 C1.52944521,21.8243306 1.40221233,21.7918065 1.28587671,21.7234758 C0.764575342,21.4164355 0.304828767,20.8730726 0.086,20.3049435 C-0.0615547945,19.9212177 0.125760274,19.4885565 0.504513699,19.3390645 C0.883561644,19.189871 1.31032192,19.3790484 1.45817123,19.7627742 C1.55359589,20.0107339 1.7974589,20.2989758 2.02541781,20.43325 C2.37707534,20.6400323 2.49665068,21.0965645 2.29254795,21.4528387 C2.15589041,21.69125 1.90878767,21.8243306 1.65491096,21.8243306" id="Fill-53"></path>
                </g>
            </g>
        </g>
    </g>
</svg>