<?xml version="1.0" encoding="UTF-8"?>
<svg width="90px" height="91px" viewBox="0 0 90 91" version="1.1" xmlns="http://www.w3.org/2000/svg" xmlns:xlink="http://www.w3.org/1999/xlink">
    <!-- Generator: Sketch 51.1 (57501) - http://www.bohemiancoding.com/sketch -->
    <title>Cow</title>
    <desc>Created with Sketch.</desc>
    <defs></defs>
    <g id="Page-1" stroke="none" stroke-width="1" fill="none" fill-rule="evenodd">
        <g id="Story-XL-new" transform="translate(-133.000000, -304.000000)">
            <g id="Cow" transform="translate(133.000000, 304.000000)">
                <rect id="Rectangle-3" fill="#FFFFFF" fill-rule="nonzero" x="0" y="0" width="90" height="90"></rect>
                <g id="Group" transform="translate(1.800000, 5.400000)">
                    <path d="M13.2822,31.6656 C8.8884,36.0594 1.1898,35.4834 1.1898,35.4834 C1.1898,35.4834 0.6156,27.7866 5.0094,23.3928 C9.4032,18.999 17.1,19.575 17.1,19.575 C17.1,19.575 17.676,27.2718 13.2822,31.6656 Z" id="Fill-301" fill="#FFFFFF"></path>
                    <path d="M13.2822,31.6656 C8.8884,36.0594 1.1898,35.4834 1.1898,35.4834 C1.1898,35.4834 0.6156,27.7866 5.0094,23.3928 C9.4032,18.999 17.1,19.575 17.1,19.575 C17.1,19.575 17.676,27.2718 13.2822,31.6656 Z" id="Stroke-302" stroke="#22313F" stroke-width="1.80000007" stroke-linecap="round" stroke-linejoin="round"></path>
                    <path d="M65.9088,31.6656 C61.515,27.27 62.091,19.5732 62.091,19.5732 C62.091,19.5732 69.7896,18.999 74.1816,23.3928 C78.5754,27.7866 77.9994,35.4834 77.9994,35.4834 C77.9994,35.4834 70.3026,36.0594 65.9088,31.6656 Z" id="Fill-303" fill="#FFFFFF"></path>
                    <path d="M65.9088,31.6656 C61.515,27.27 62.091,19.5732 62.091,19.5732 C62.091,19.5732 69.7896,18.999 74.1816,23.3928 C78.5754,27.7866 77.9994,35.4834 77.9994,35.4834 C77.9994,35.4834 70.3026,36.0594 65.9088,31.6656 Z" id="Stroke-304" stroke="#22313F" stroke-width="1.80000007" stroke-linecap="round" stroke-linejoin="round"></path>
                    <path d="M39.6,33.75 C28.8072,33.75 20.025,24.9678 20.025,14.175 C20.025,9.3618 21.8052,4.725 25.038,1.1214 C26.0316,0.0144 27.7362,-0.0846 28.8504,0.9162 C29.961,1.9098 30.0528,3.618 29.0574,4.7286 C26.7156,7.3386 25.425,10.6938 25.425,14.175 C25.425,21.9924 31.7826,28.35 39.6,28.35 C47.4174,28.35 53.775,21.9924 53.775,14.175 C53.775,10.6938 52.4844,7.3386 50.1426,4.7286 C49.1472,3.618 49.2408,1.9098 50.3496,0.9162 C51.4638,-0.081 53.1684,0.0144 54.162,1.1214 C57.3948,4.725 59.175,9.3618 59.175,14.175 C59.175,24.9678 50.3928,33.75 39.6,33.75 Z" id="Fill-305" fill="#FFFFFF"></path>
                    <path d="M39.6,33.75 C28.8072,33.75 20.025,24.9678 20.025,14.175 C20.025,9.3618 21.8052,4.725 25.038,1.1214 C26.0316,0.0144 27.7362,-0.0846 28.8504,0.9162 C29.961,1.9098 30.0528,3.618 29.0574,4.7286 C26.7156,7.3386 25.425,10.6938 25.425,14.175 C25.425,21.9924 31.7826,28.35 39.6,28.35 C47.4174,28.35 53.775,21.9924 53.775,14.175 C53.775,10.6938 52.4844,7.3386 50.1426,4.7286 C49.1472,3.618 49.2408,1.9098 50.3496,0.9162 C51.4638,-0.081 53.1684,0.0144 54.162,1.1214 C57.3948,4.725 59.175,9.3618 59.175,14.175 C59.175,24.9678 50.3928,33.75 39.6,33.75 Z" id="Stroke-306" stroke="#22313F" stroke-width="1.80000007" stroke-linecap="round" stroke-linejoin="round"></path>
                    <path d="M17.1,19.575 L17.1,42.075 C17.1,48.3192 22.176,52.6356 26.55,57.0672 C29.3688,59.9256 28.35,69.525 28.35,69.525 L50.85,69.525 C50.85,69.525 49.8294,59.9238 52.65,57.0672 C57.024,52.6374 62.1,48.3192 62.1,42.075 L62.1,19.575 L17.1,19.575 Z" id="Fill-307" fill="#FFFFFF"></path>
                    <path d="M17.1,19.575 L17.1,42.075 C17.1,48.3192 22.176,52.6356 26.55,57.0672 C29.3688,59.9256 28.35,69.525 28.35,69.525 L50.85,69.525 C50.85,69.525 49.8294,59.9238 52.65,57.0672 C57.024,52.6374 62.1,48.3192 62.1,42.075 L62.1,19.575 L17.1,19.575 Z" id="Stroke-308" stroke="#22313F" stroke-width="1.80000007" stroke-linecap="round" stroke-linejoin="round"></path>
                    <path d="M56.25,72.9 C56.25,69.93 53.82,67.5 50.85,67.5 L28.35,67.5 C25.38,67.5 22.95,69.93 22.95,72.9 L22.95,78.75 C22.95,81.72 25.38,84.15 28.35,84.15 L50.85,84.15 C53.82,84.15 56.25,81.72 56.25,78.75 L56.25,72.9 Z" id="Fill-309" fill="#FFFFFF"></path>
                    <path d="M56.25,72.9 C56.25,69.93 53.82,67.5 50.85,67.5 L28.35,67.5 C25.38,67.5 22.95,69.93 22.95,72.9 L22.95,78.75 C22.95,81.72 25.38,84.15 28.35,84.15 L50.85,84.15 C53.82,84.15 56.25,81.72 56.25,78.75 L56.25,72.9 Z" id="Stroke-310" stroke="#22313F" stroke-width="1.80000007" stroke-linecap="round" stroke-linejoin="round"></path>
                    <path d="M56.25,72.9 C56.25,69.93 53.82,67.5 50.85,67.5 L28.35,67.5 C25.38,67.5 22.95,69.93 22.95,72.9 L22.95,78.75 C22.95,81.72 25.38,84.15 28.35,84.15 L50.85,84.15 C53.82,84.15 56.25,81.72 56.25,78.75 L56.25,72.9 Z" id="Fill-311" fill="#FFFFFF"></path>
                    <path d="M56.25,72.9 C56.25,69.93 53.82,67.5 50.85,67.5 L28.35,67.5 C25.38,67.5 22.95,69.93 22.95,72.9 L22.95,78.75 C22.95,81.72 25.38,84.15 28.35,84.15 L50.85,84.15 C53.82,84.15 56.25,81.72 56.25,78.75 L56.25,72.9 Z" id="Stroke-312" stroke="#22313F" stroke-width="1.80000007" stroke-linecap="round" stroke-linejoin="round"></path>
                    <path d="M46.0404,45.675 C46.0404,45.675 47.5902,43.875 49.5018,43.875 C51.4116,43.875 52.9632,45.675 52.9632,45.675" id="Fill-313" fill="#FFFFFF"></path>
                    <path d="M46.0404,45.675 C46.0404,45.675 47.5902,43.875 49.5018,43.875 C51.4116,43.875 52.9632,45.675 52.9632,45.675" id="Stroke-314" stroke="#22313F" stroke-width="1.80000007" stroke-linecap="round" stroke-linejoin="round"></path>
                    <path d="M26.2404,45.675 C26.2404,45.675 27.7902,43.875 29.7018,43.875 C31.6134,43.875 33.1632,45.675 33.1632,45.675" id="Fill-315" fill="#FFFFFF"></path>
                    <path d="M26.2404,45.675 C26.2404,45.675 27.7902,43.875 29.7018,43.875 C31.6134,43.875 33.1632,45.675 33.1632,45.675" id="Stroke-316" stroke="#22313F" stroke-width="1.80000007" stroke-linecap="round" stroke-linejoin="round"></path>
                    <path d="M28.8,78.75 L50.4,78.75 M53.1,76.05 C53.1,77.5404 51.8904,78.75 50.4,78.75 M29.025,78.75 C27.5346,78.75 26.325,77.5404 26.325,76.05" id="Stroke-317" stroke="#22313F" stroke-width="1.80000007" stroke-linecap="round" stroke-linejoin="round"></path>
                    <path d="M28.8,27 C28.8,28.4904 30.0096,29.7 31.5,29.7 C32.9904,29.7 34.2,28.4904 34.2,27 C34.2,26.2548 34.8048,25.65 35.55,25.65 C36.2952,25.65 36.9,26.2548 36.9,27 L36.9,33.3 C36.9,34.7904 38.1096,36 39.6,36 C41.0904,36 42.3,34.7904 42.3,33.3 L42.3,25.2 C42.3,24.4548 42.9048,23.85 43.65,23.85 C44.3952,23.85 45,24.4548 45,25.2 L45,28.8 C45,30.2904 46.2096,31.5 47.7,31.5 C49.1904,31.5 50.4,30.2904 50.4,28.8 L50.4,25.2 C50.4,25.2 50.4,23.1246 50.4,20.5884 C50.4,18.0504 47.97,15.975 45,15.975 L34.2,15.975 C31.23,15.975 28.8,18.405 28.8,21.375 L28.8,27 Z" id="Fill-318" fill="#FFFFFF"></path>
                    <path d="M28.8,27 C28.8,28.4904 30.0096,29.7 31.5,29.7 C32.9904,29.7 34.2,28.4904 34.2,27 C34.2,26.2548 34.8048,25.65 35.55,25.65 C36.2952,25.65 36.9,26.2548 36.9,27 L36.9,33.3 C36.9,34.7904 38.1096,36 39.6,36 C41.0904,36 42.3,34.7904 42.3,33.3 L42.3,25.2 C42.3,24.4548 42.9048,23.85 43.65,23.85 C44.3952,23.85 45,24.4548 45,25.2 L45,28.8 C45,30.2904 46.2096,31.5 47.7,31.5 C49.1904,31.5 50.4,30.2904 50.4,28.8 L50.4,25.2 C50.4,25.2 50.4,23.1246 50.4,20.5884 C50.4,18.0504 47.97,15.975 45,15.975 L34.2,15.975 C31.23,15.975 28.8,18.405 28.8,21.375 L28.8,27 Z" id="Stroke-319" stroke="#22313F" stroke-width="1.80000007" stroke-linecap="round" stroke-linejoin="round"></path>
                </g>
            </g>
        </g>
    </g>
</svg>