<?xml version="1.0" encoding="UTF-8"?>
<svg width="157px" height="35px" viewBox="0 0 157 35" version="1.1" xmlns="http://www.w3.org/2000/svg" xmlns:xlink="http://www.w3.org/1999/xlink">
    <!-- Generator: Sketch 51.1 (57501) - http://www.bohemiancoding.com/sketch -->
    <title>meatstory-logo</title>
    <desc>Created with Sketch.</desc>
    <defs></defs>
    <g id="Page-1" stroke="none" stroke-width="1" fill="none" fill-rule="evenodd">
        <g id="Home-XL-new" transform="translate(-134.000000, -45.000000)">
            <g id="logo-xs-new" transform="translate(133.000000, 45.000000)">
                <path d="M35.2891206,10.2947181 C32.3984557,4.69575801 39.2590435,2.65550266 34.4717038,-0.877479892 C29.6843641,-4.41046245 26.5538679,3.05227365 16.1195478,4.77823613 C-6.14371717,8.46076351 1.47337876,27.9150848 8.42860174,32.2067159 C15.3838247,36.498347 28.7199366,35.9531445 35.7115437,26.8372236 C40.2722252,20.8908353 39.1438169,17.7609208 35.2891206,10.2947181 Z" id="Fill-1" fill="#2D261F" transform="translate(19.999867, 16.492149) rotate(12.000000) translate(-19.999867, -16.492149) "></path>
                <path d="M49.3199574,26.4268466 C45.142223,26.4268466 42.3121449,23.4497514 42.3121449,19.7008168 C42.3121449,15.9396307 45.2034801,12.9380327 49.1974432,12.9380327 C52.9341264,12.9380327 55.8132102,15.5598366 55.8744673,19.4802912 L55.8622159,19.7498224 C55.8377131,20.056108 55.6539418,20.2398793 55.3476562,20.2398793 L46.2693537,20.2398793 C45.9508168,20.2398793 45.7302912,20.435902 45.8160511,20.7789418 C46.1223366,22.5431463 47.5680043,23.6457741 49.307706,23.6457741 C50.4960938,23.6457741 51.5619673,23.1557173 52.2602983,22.2368608 C52.456321,21.979581 52.6645952,21.893821 52.9463778,22.0163352 L54.8085937,22.8004261 C55.1148793,22.9351918 55.225142,23.1557173 55.078125,23.4129972 C53.9632457,25.2752131 51.9050071,26.4268466 49.3199574,26.4268466 Z M46.453125,18.1081321 L51.9172585,18.1081321 C52.2725497,18.1081321 52.4685724,17.8876065 52.3338068,17.5445668 C51.8682528,16.2826705 50.7043679,15.510831 49.2341974,15.510831 C47.764027,15.510831 46.5756392,16.270419 46.0365767,17.5200639 C45.8895597,17.8753551 46.1100852,18.1081321 46.453125,18.1081321 Z M65.7291904,26.4513494 C62.3355469,26.4513494 59.4442117,23.584517 59.4442117,19.6640625 C59.4442117,15.7558594 62.3355469,12.9012784 65.7291904,12.9012784 C67.2851208,12.9012784 68.5347657,13.4158381 69.4536222,14.2366832 C69.796662,14.5307173 70.0416904,14.4939631 70.0416904,14.1019176 L70.0416904,13.7098722 C70.0416904,13.3913352 70.2254617,13.2075639 70.5439986,13.2075639 L73.031037,13.2075639 C73.3618253,13.2075639 73.5333452,13.3913352 73.5333452,13.7098722 L73.5333452,25.6795099 C73.5333452,26.0102983 73.3618253,26.1818182 73.031037,26.1818182 L70.5317472,26.1818182 C70.2009589,26.1818182 70.029439,26.0102983 70.029439,25.6795099 L70.029439,25.3732244 C70.029439,24.9444247 69.8334162,24.7851562 69.5761364,25.0301847 C68.6572799,25.9000355 67.3708807,26.4513494 65.7291904,26.4513494 Z M66.6848012,23.4742543 C68.7675427,23.4742543 70.409233,21.9305753 70.409233,19.6640625 C70.409233,17.4098011 68.7675427,15.8783736 66.6848012,15.8783736 C64.5898083,15.8783736 62.9358665,17.4098011 62.9358665,19.6640625 C62.9358665,21.9305753 64.5898083,23.4742543 66.6848012,23.4742543 Z M84.0251421,26.1818182 C81.4155896,26.1818182 79.8106535,24.7361506 79.8106535,22.1388494 L79.8106535,16.1479048 C79.8106535,15.8171165 79.6268822,15.6455966 79.3083453,15.6455966 L78.2669745,15.6455966 C77.9361862,15.6455966 77.7646663,15.4740767 77.7646663,15.1432884 L77.7646663,13.7098722 C77.7646663,13.3913352 77.9361862,13.2075639 78.2669745,13.2075639 L79.3083453,13.2075639 C79.6268822,13.2075639 79.8106535,13.036044 79.8106535,12.7052557 L79.8106535,10.120206 C79.8106535,9.80166903 79.9821734,9.61789773 80.3129618,9.61789773 L82.8122515,9.61789773 C83.1430399,9.61789773 83.3145598,9.80166903 83.3145598,10.120206 L83.3145598,12.7052557 C83.3145598,13.036044 83.4860796,13.2075639 83.816868,13.2075639 L85.7648439,13.2075639 C86.0956322,13.2075639 86.2671521,13.3913352 86.2671521,13.7098722 L86.2671521,15.1432884 C86.2671521,15.4740767 86.0956322,15.6455966 85.7648439,15.6455966 L83.816868,15.6455966 C83.4860796,15.6455966 83.3145598,15.8171165 83.3145598,16.1479048 L83.3145598,21.746804 C83.3145598,22.9351918 83.963885,23.4987571 84.894993,23.4987571 L85.7280896,23.4987571 C86.0466265,23.4987571 86.2303978,23.670277 86.2303978,24.0010653 L86.2303978,25.6795099 C86.2303978,26.0102983 86.0466265,26.1818182 85.7280896,26.1818182 L84.0251421,26.1818182 Z M95.2275215,26.4268466 C93.377557,26.4268466 91.5520953,25.8510298 90.2166905,25.0301847 C89.9349078,24.8586648 89.8981536,24.6258878 90.057422,24.3441051 L91.0007814,22.7024148 C91.1600499,22.4083807 91.4173297,22.3716264 91.686861,22.5676491 C92.7282317,23.2537287 94.1003908,23.7805398 95.2030186,23.7805398 C96.2076351,23.7805398 96.8814632,23.3517401 96.8814632,22.5553977 C96.8814632,21.5630327 95.680824,21.2689986 94.2596592,20.7911932 C92.5077061,20.2153764 90.4249646,19.5170455 90.4249646,16.9319957 C90.4249646,14.2366832 92.6914774,12.9625355 95.3132814,12.9625355 C96.7466976,12.9625355 98.2168681,13.3300781 99.4787644,14.0529119 C99.7727985,14.2121804 99.8218041,14.4449574 99.6380328,14.7267401 L98.682422,16.1846591 C98.5109021,16.4541903 98.2658737,16.503196 97.9963425,16.3439276 C97.1019888,15.8416193 96.0238638,15.5230824 95.2275215,15.5230824 C94.3209163,15.5230824 93.6960939,15.890625 93.6960939,16.5767045 C93.6960939,17.4955611 95.0314987,17.7528409 96.526172,18.2306463 C98.2903766,18.7942116 100.262855,19.590554 100.262855,22.2491122 C100.262855,25.0424361 98.1188567,26.4268466 95.2275215,26.4268466 Z M109.70103,26.1818182 C107.091477,26.1818182 105.486541,24.7361506 105.486541,22.1388494 L105.486541,16.1479048 C105.486541,15.8171165 105.30277,15.6455966 104.984233,15.6455966 L103.942862,15.6455966 C103.612074,15.6455966 103.440554,15.4740767 103.440554,15.1432884 L103.440554,13.7098722 C103.440554,13.3913352 103.612074,13.2075639 103.942862,13.2075639 L104.984233,13.2075639 C105.30277,13.2075639 105.486541,13.036044 105.486541,12.7052557 L105.486541,10.120206 C105.486541,9.80166903 105.658061,9.61789773 105.98885,9.61789773 L108.488139,9.61789773 C108.818928,9.61789773 108.990448,9.80166903 108.990448,10.120206 L108.990448,12.7052557 C108.990448,13.036044 109.161968,13.2075639 109.492756,13.2075639 L111.440732,13.2075639 C111.77152,13.2075639 111.94304,13.3913352 111.94304,13.7098722 L111.94304,15.1432884 C111.94304,15.4740767 111.77152,15.6455966 111.440732,15.6455966 L109.492756,15.6455966 C109.161968,15.6455966 108.990448,15.8171165 108.990448,16.1479048 L108.990448,21.746804 C108.990448,22.9351918 109.639773,23.4987571 110.570881,23.4987571 L111.403977,23.4987571 C111.722514,23.4987571 111.906286,23.670277 111.906286,24.0010653 L111.906286,25.6795099 C111.906286,26.0102983 111.722514,26.1818182 111.403977,26.1818182 L109.70103,26.1818182 Z M122.63086,26.4268466 C118.600142,26.4268466 115.537287,23.5967685 115.537287,19.6885653 C115.537287,15.7926136 118.600142,12.9625355 122.63086,12.9625355 C126.649326,12.9625355 129.724432,15.7926136 129.724432,19.6885653 C129.724432,23.5967685 126.649326,26.4268466 122.63086,26.4268466 Z M122.618608,23.4252486 C124.689098,23.4252486 126.367543,21.8693182 126.367543,19.6885653 C126.367543,17.5200639 124.689098,15.9518821 122.618608,15.9518821 C120.535867,15.9518821 118.881925,17.4955611 118.881925,19.6885653 C118.881925,21.9060724 120.535867,23.4252486 122.618608,23.4252486 Z M134.911364,26.1818182 C134.580576,26.1818182 134.409056,26.0102983 134.409056,25.6795099 L134.409056,13.7098722 C134.409056,13.3913352 134.580576,13.2075639 134.911364,13.2075639 L137.239134,13.2075639 C137.569922,13.2075639 137.741442,13.3913352 137.741442,13.7098722 L137.741442,14.7267401 C137.741442,15.1800426 137.98647,15.278054 138.292756,14.9105114 C139.040093,14.0651634 140.179475,13.3423295 141.674148,13.1340554 C142.017188,13.0850497 142.213211,13.2810724 142.213211,13.5996094 L142.213211,15.9151278 C142.213211,16.2091619 142.041691,16.4174361 141.710902,16.4174361 C139.285121,16.5399503 137.900711,17.5445668 137.900711,19.9825994 L137.900711,25.6795099 C137.900711,26.0102983 137.716939,26.1818182 137.398402,26.1818182 L134.911364,26.1818182 Z M147.547159,32.2830256 C147.179617,32.2830256 147.020348,32.0502486 147.155114,31.7072088 L149.507387,25.740767 C149.61765,25.5079901 149.61765,25.3364702 149.507387,25.0791903 L144.900853,13.7833807 C144.741584,13.4403409 144.900853,13.2075639 145.280647,13.2075639 L148.073971,13.2075639 C148.343502,13.2075639 148.539525,13.354581 148.625284,13.6241122 L151.17358,21.0117188 C151.320597,21.4650213 151.675888,21.4405185 151.835157,20.9994673 L154.346698,13.6241122 C154.432458,13.354581 154.62848,13.2075639 154.910263,13.2075639 L157.519816,13.2075639 C157.89961,13.2075639 158.046627,13.4403409 157.924113,13.7833807 L150.65902,31.8787287 C150.561009,32.1237571 150.364986,32.2830256 150.083203,32.2830256 L147.547159,32.2830256 Z" id="eatstory" fill="#232323"></path>
                <path d="M32.9175531,23.0763836 L34.9598174,23.0763836 L34.9598174,25.6939336 C34.0681245,26.039105 32.8312602,26.2692193 31.8820388,26.2692193 C29.6959531,26.2692193 28.9193174,25.1186479 28.9193174,23.2489693 L28.9193174,17.0934123 C28.9193174,15.1662051 28.2289746,14.1594552 26.359296,14.1594552 C24.1156818,14.1594552 22.7925246,16.0003694 22.7925246,18.3015123 L22.7925246,23.0763836 L24.8060246,23.0763836 L24.8060246,25.6939336 C23.9143318,26.039105 22.6774675,26.2692193 21.7570104,26.2692193 C19.5709247,26.2692193 18.7655247,25.1186479 18.7655247,23.2489693 L18.7655247,17.0934123 C18.7655247,15.1662051 18.0751818,14.1594552 16.2342676,14.1594552 C13.9906533,14.1594552 12.6387319,16.0003694 12.6387319,18.3015123 L12.6387319,23.0763836 L14.2495319,23.0763836 L14.2495319,26.0103407 L6.79958197,26.0103407 L6.79958197,23.0763836 L8.66926052,23.0763836 L8.66926052,14.5621552 L6.51193911,14.5621552 L6.51193911,11.628198 L12.4661462,11.628198 L12.4661462,12.5486552 C12.0922105,13.238998 11.5456891,14.5046266 11.5456891,15.9428409 L11.7470391,15.9428409 C12.2935605,13.2102337 14.5084105,10.9090909 17.6149533,10.9090909 C20.203739,10.9090909 21.8145389,12.0884266 22.4761175,14.2745123 C23.4253389,12.3185409 25.3237818,10.9090909 27.7399817,10.9090909 C31.191696,10.9090909 32.9175531,12.9801195 32.9175531,16.7482408 L32.9175531,23.0763836 Z" id="m" fill="#FFFFFF"></path>
            </g>
        </g>
    </g>
</svg>