<?xml version="1.0" encoding="UTF-8"?>
<svg width="90px" height="91px" viewBox="0 0 90 91" version="1.1" xmlns="http://www.w3.org/2000/svg" xmlns:xlink="http://www.w3.org/1999/xlink">
    <!-- Generator: Sketch 51.1 (57501) - http://www.bohemiancoding.com/sketch -->
    <title>Steak</title>
    <desc>Created with Sketch.</desc>
    <defs></defs>
    <g id="Page-1" stroke="none" stroke-width="1" fill="none" fill-rule="evenodd">
        <g id="Story-XL-new" transform="translate(-773.000000, -304.000000)">
            <g id="Steak" transform="translate(773.000000, 304.000000)">
                <rect id="Rectangle-3-Copy-2" fill="#FFFFFF" fill-rule="nonzero" x="0" y="0" width="90" height="90"></rect>
                <g id="Group-3" transform="translate(1.800000, 27.000000)">
                    <path d="M31.725,0.414473684 C14.5478824,0.414473684 0.622058824,14.3325 0.622058824,31.5 C0.622058824,48.6675 14.5478824,62.5855263 31.725,62.5855263 C38.1380118,62.5855263 57.5313176,62.5855263 62.8279412,62.5855263 C74.2788,62.5855263 83.5632353,53.3062895 83.5632353,41.8618421 C83.5632353,30.4173947 45.2958353,0.414473684 31.725,0.414473684 Z" id="Fill-102" fill="#FFFFFF"></path>
                    <path d="M31.725,0.414473684 C14.5478824,0.414473684 0.622058824,14.3325 0.622058824,31.5 C0.622058824,48.6675 14.5478824,62.5855263 31.725,62.5855263 C38.1380118,62.5855263 57.5313176,62.5855263 62.8279412,62.5855263 C74.2788,62.5855263 83.5632353,53.3062895 83.5632353,41.8618421 C83.5632353,30.4173947 45.2958353,0.414473684 31.725,0.414473684 Z" id="Stroke-103" stroke="#22313F" stroke-width="1.65882353" stroke-linecap="round" stroke-linejoin="round"></path>
                    <path d="M31.725,55.9539474 C18.2337882,55.9539474 7.25735294,44.9836579 7.25735294,31.5 C7.25735294,18.0163421 18.2337882,7.04605263 31.725,7.04605263 C42.0860118,7.04605263 48.1440353,15.4466053 54.7909412,23.4210789 C56.2556824,25.1784474 57.9874941,27.7697368 62.8279412,27.7697368 C70.6011882,27.7697368 76.9279412,34.0912895 76.9279412,41.8618421 C76.9279412,49.6323947 70.6011882,55.9539474 62.8279412,55.9539474 L31.725,55.9539474 Z" id="Fill-104" fill="#FFFFFF"></path>
                    <path d="M31.725,55.9539474 C18.2337882,55.9539474 7.25735294,44.9836579 7.25735294,31.5 C7.25735294,18.0163421 18.2337882,7.04605263 31.725,7.04605263 C42.0860118,7.04605263 48.1440353,15.4466053 54.7909412,23.4210789 C56.2556824,25.1784474 57.9874941,27.7697368 62.8279412,27.7697368 C70.6011882,27.7697368 76.9279412,34.0912895 76.9279412,41.8618421 C76.9279412,49.6323947 70.6011882,55.9539474 62.8279412,55.9539474 L31.725,55.9539474 Z" id="Stroke-105" stroke="#22313F" stroke-width="1.65882353" stroke-linecap="round" stroke-linejoin="round"></path>
                    <path d="M38.775,31.2198158 C38.1048353,30.5483684 35.7808235,28.2256579 35.109,27.5558684 C33.0835765,25.5315789 29.8040824,25.5315789 27.7786588,27.5558684 C25.7532353,29.5801579 25.7532353,32.8578158 27.7786588,34.8821053 C28.4488235,35.5535526 30.7728353,37.8762632 31.4446588,38.5460526 C33.4700824,40.5703421 36.7495765,40.5703421 38.775,38.5460526 C40.8004235,36.5217632 40.8004235,33.2441053 38.775,31.2198158 Z" id="Fill-106" fill="#FFFFFF"></path>
                    <path d="M38.775,31.2198158 C38.1048353,30.5483684 35.7808235,28.2256579 35.109,27.5558684 C33.0835765,25.5315789 29.8040824,25.5315789 27.7786588,27.5558684 C25.7532353,29.5801579 25.7532353,32.8578158 27.7786588,34.8821053 C28.4488235,35.5535526 30.7728353,37.8762632 31.4446588,38.5460526 C33.4700824,40.5703421 36.7495765,40.5703421 38.775,38.5460526 C40.8004235,36.5217632 40.8004235,33.2441053 38.775,31.2198158 Z" id="Stroke-107" stroke="#22313F" stroke-width="1.65882353" stroke-linecap="round" stroke-linejoin="round"></path>
                </g>
            </g>
        </g>
    </g>
</svg>