<?xml version="1.0" encoding="UTF-8"?>
<svg width="90px" height="91px" viewBox="0 0 90 91" version="1.1" xmlns="http://www.w3.org/2000/svg" xmlns:xlink="http://www.w3.org/1999/xlink">
    <!-- Generator: Sketch 51.1 (57501) - http://www.bohemiancoding.com/sketch -->
    <title>Tractor</title>
    <desc>Created with Sketch.</desc>
    <defs></defs>
    <g id="Page-1" stroke="none" stroke-width="1" fill="none" fill-rule="evenodd">
        <g id="Story-XL-new" transform="translate(-453.000000, -304.000000)">
            <g id="Tractor" transform="translate(453.000000, 304.000000)">
                <rect id="Rectangle-3-Copy" fill="#FFFFFF" fill-rule="nonzero" x="0" y="0" width="90" height="90"></rect>
                <g id="Group-2" transform="translate(1.800000, 16.200000)">
                    <path d="M20.5625,38.862766 L20.5625,9.94415745" id="Fill-2" fill="#FFFFFF"></path>
                    <path d="M20.5625,38.862766 L20.5625,9.94415745" id="Stroke-3" stroke="#22313F" stroke-width="1.56666667" stroke-linecap="round" stroke-linejoin="round"></path>
                    <polygon id="Fill-4" fill="#FFFFFF" points="79.5083333 38.862766 1.175 38.862766 2.74166667 58.4904255 79.5083333 58.4904255"></polygon>
                    <polygon id="Stroke-5" stroke="#22313F" stroke-width="1.56666667" stroke-linecap="round" stroke-linejoin="round" points="79.5083333 38.862766 1.175 38.862766 2.74166667 58.4904255 79.5083333 58.4904255"></polygon>
                    <polygon id="Fill-6" fill="#FFFFFF" points="49.7416667 0.336025532 79.5083333 0.336025532 79.5083333 38.862766 40.3416667 38.862766"></polygon>
                    <polygon id="Stroke-7" stroke="#22313F" stroke-width="1.56666667" stroke-linecap="round" stroke-linejoin="round" points="49.7416667 0.336025532 79.5083333 0.336025532 79.5083333 38.862766 40.3416667 38.862766"></polygon>
                    <polygon id="Fill-8" fill="#FFFFFF" points="45.2531667 5.88829787 82.6416667 5.88829787 82.6416667 0.336025532 46.6083333 0.336025532"></polygon>
                    <polygon id="Stroke-9" stroke="#22313F" stroke-width="1.56666667" stroke-linecap="round" stroke-linejoin="round" points="45.2531667 5.88829787 82.6416667 5.88829787 82.6416667 0.336025532 46.6083333 0.336025532"></polygon>
                    <path d="M84.2083333,53.7797872 C84.2083333,42.9406085 75.4397,34.1521277 64.625,34.1521277 C53.8103,34.1521277 45.0416667,42.9406085 45.0416667,53.7797872 C45.0416667,64.618966 53.8103,73.4074468 64.625,73.4074468 C75.4397,73.4074468 84.2083333,64.618966 84.2083333,53.7797872 Z" id="Fill-10" fill="#FFFFFF"></path>
                    <path d="M84.2083333,53.7797872 C84.2083333,42.9406085 75.4397,34.1521277 64.625,34.1521277 C53.8103,34.1521277 45.0416667,42.9406085 45.0416667,53.7797872 C45.0416667,64.618966 53.8103,73.4074468 64.625,73.4074468 C75.4397,73.4074468 84.2083333,64.618966 84.2083333,53.7797872 Z" id="Stroke-11" stroke="#22313F" stroke-width="1.56666667" stroke-linecap="round" stroke-linejoin="round"></path>
                    <path d="M5.14963333,63.593617 C5.14963333,58.1732426 9.53316667,53.7797872 14.9413,53.7797872 C20.3478667,53.7797872 24.7329667,58.1732426 24.7329667,63.593617 C24.7329667,69.0139915 20.3478667,73.4074468 14.9413,73.4074468 C9.53316667,73.4074468 5.14963333,69.0139915 5.14963333,63.593617 Z" id="Fill-12" fill="#FFFFFF"></path>
                    <path d="M5.14963333,63.593617 C5.14963333,58.1732426 9.53316667,53.7797872 14.9413,53.7797872 C20.3478667,53.7797872 24.7329667,58.1732426 24.7329667,63.593617 C24.7329667,69.0139915 20.3478667,73.4074468 14.9413,73.4074468 C9.53316667,73.4074468 5.14963333,69.0139915 5.14963333,63.593617 Z" id="Stroke-13" stroke="#22313F" stroke-width="1.56666667" stroke-linecap="round" stroke-linejoin="round"></path>
                    <path d="M54.8333333,53.7797872 C54.8333333,48.3594128 59.2168667,43.9659574 64.625,43.9659574 C70.0331333,43.9659574 74.4166667,48.3594128 74.4166667,53.7797872 C74.4166667,59.2001617 70.0331333,63.593617 64.625,63.593617 C59.2168667,63.593617 54.8333333,59.2001617 54.8333333,53.7797872 Z" id="Fill-14" fill="#FFFFFF"></path>
                    <path d="M54.8333333,53.7797872 C54.8333333,48.3594128 59.2168667,43.9659574 64.625,43.9659574 C70.0331333,43.9659574 74.4166667,48.3594128 74.4166667,53.7797872 C74.4166667,59.2001617 70.0331333,63.593617 64.625,63.593617 C59.2168667,63.593617 54.8333333,59.2001617 54.8333333,53.7797872 Z" id="Stroke-15" stroke="#22313F" stroke-width="1.56666667" stroke-linecap="round" stroke-linejoin="round"></path>
                    <path d="M10.0454667,63.593617 C10.0454667,60.8818596 12.2372333,58.6867021 14.9413,58.6867021 C17.6438,58.6867021 19.8371333,60.8818596 19.8371333,63.593617 C19.8371333,66.3053745 17.6438,68.5005319 14.9413,68.5005319 C12.2372333,68.5005319 10.0454667,66.3053745 10.0454667,63.593617 Z" id="Fill-16" fill="#FFFFFF"></path>
                    <path d="M10.0454667,63.593617 C10.0454667,60.8818596 12.2372333,58.6867021 14.9413,58.6867021 C17.6438,58.6867021 19.8371333,60.8818596 19.8371333,63.593617 C19.8371333,66.3053745 17.6438,68.5005319 14.9413,68.5005319 C12.2372333,68.5005319 10.0454667,66.3053745 10.0454667,63.593617 Z" id="Stroke-17" stroke="#22313F" stroke-width="1.56666667" stroke-linecap="round" stroke-linejoin="round"></path>
                    <path d="M35.25,43.5734043 L15.6666667,43.5734043 M35.25,48.2840426 L25.4583333,48.2840426" id="Stroke-18" stroke="#22313F" stroke-width="1.56666667" stroke-linecap="round" stroke-linejoin="round"></path>
                    <polygon id="Fill-19" fill="#FFFFFF" points="18.2125 34.1521277 22.9125 34.1521277 22.9125 14.5244681 18.2125 14.5244681"></polygon>
                    <polygon id="Stroke-20" stroke="#22313F" stroke-width="1.56666667" stroke-linecap="round" stroke-linejoin="round" points="18.2125 34.1521277 22.9125 34.1521277 22.9125 14.5244681 18.2125 14.5244681"></polygon>
                </g>
            </g>
        </g>
    </g>
</svg>